<svg width="1295" height="158" viewBox="0 0 1295 158" fill="none" xmlns="http://www.w3.org/2000/svg">
    <g clip-path="url(#clip0)">
        <path d="M32.5728 2.23163H95.446L99.991 94.4723L143.926 2.23163H206.8L174.227 154.726H134.836L159.834 38.6816L104.536 154.726H68.9332L64.3882 38.6816L39.3904 154.726H0L32.5728 2.23163ZM215.132 78.8509C220.435 54.303 231.797 34.9622 248.463 20.8285C265.885 6.69489 286.338 0 312.093 0C337.848 0 356.029 6.69489 367.391 20.0847C378.754 33.4744 381.026 52.8152 375.724 77.3631C371.936 95.2161 365.876 109.35 356.786 121.252C348.454 132.41 337.848 141.336 324.971 148.031C312.093 154.726 296.943 157.702 279.52 157.702C262.098 157.702 248.463 154.726 237.857 149.519C227.252 144.312 220.435 135.385 215.89 123.483C211.345 111.581 211.345 96.7039 215.132 78.8509V78.8509ZM262.855 78.8509C259.825 94.4723 259.825 104.887 264.37 111.581C268.915 118.276 275.733 121.996 285.58 121.996C296.185 121.996 304.518 119.02 311.336 112.325C318.153 105.63 323.456 93.7284 327.243 76.6192C331.031 62.4856 330.273 52.0713 325.728 45.3764C321.183 38.6816 314.366 35.7061 303.761 35.7061C293.913 35.7061 285.58 39.4254 278.005 46.1203C271.188 52.0713 265.885 63.2295 262.855 78.8509V78.8509ZM395.419 78.8509C400.722 54.303 412.084 34.9622 428.749 20.8285C446.172 6.69489 466.625 0 492.38 0C518.135 0 536.315 6.69489 547.678 20.0847C559.041 33.4744 561.313 52.8152 556.011 77.3631C552.223 95.2161 546.163 109.35 537.073 121.252C528.74 132.41 518.135 141.336 505.258 148.031C492.38 154.726 477.23 157.702 459.807 157.702C442.384 157.702 428.749 154.726 418.144 149.519C407.539 144.312 400.722 135.385 396.176 123.483C391.631 111.581 391.631 96.7039 395.419 78.8509V78.8509ZM443.142 78.8509C440.112 94.4723 440.112 104.887 444.657 111.581C449.202 118.276 456.02 121.996 465.867 121.996C476.472 121.996 484.805 119.02 491.622 112.325C498.44 105.63 503.743 93.7284 507.53 76.6192C510.56 62.4856 509.803 52.0713 505.258 45.3764C500.713 38.6816 493.895 35.7061 483.29 35.7061C473.442 35.7061 465.11 39.4254 457.535 46.1203C451.475 52.0713 446.172 63.2295 443.142 78.8509V78.8509ZM573.433 2.23163H623.429L634.791 111.581L693.12 2.23163H741.6L650.699 154.726H598.431L573.433 2.23163ZM758.265 2.23163H803.716L801.443 87.0335L843.864 2.23163H889.314L894.617 87.0335L929.462 2.23163H974.912L908.252 153.982H861.286L854.469 58.0223L806.746 153.982H759.78L758.265 2.23163ZM1158.23 2.23163H1247.62C1262.77 2.23163 1273.37 5.95101 1279.43 13.3898C1285.49 20.8285 1287.76 29.755 1285.49 40.1693C1283.22 49.0958 1278.67 56.5346 1271.86 63.2295C1267.31 67.6927 1260.49 70.6682 1252.92 73.6437C1263.52 76.6192 1270.34 81.0825 1274.89 87.0335C1278.67 93.7284 1279.43 101.167 1277.92 110.838C1276.4 119.02 1272.61 125.715 1267.31 132.41C1262.01 138.361 1255.95 143.568 1249.13 147.287C1244.59 149.519 1238.52 151.007 1230.19 152.495C1218.83 153.982 1212.01 154.726 1208.22 154.726H1125.66L1158.23 2.23163ZM1193.07 62.4856H1213.53C1221.1 62.4856 1226.4 60.9978 1230.19 58.7662C1233.98 56.5346 1236.25 52.8152 1237.01 47.6081C1237.77 43.1448 1237.01 39.4254 1234.74 37.1938C1232.46 34.9622 1227.92 33.4744 1220.34 33.4744H1199.13L1193.07 62.4856V62.4856ZM1180.2 121.996H1204.44C1212.77 121.996 1218.83 120.508 1222.62 117.532C1226.4 114.557 1229.43 110.838 1230.19 105.63C1230.95 101.167 1230.19 97.4478 1227.16 94.4723C1224.13 91.4968 1218.83 90.009 1210.5 90.009H1186.26L1180.2 121.996Z" fill="#131313"/>
        <path d="M962.977 154.712H1108.38L1115.96 119.584H970.55L962.977 154.712V154.712Z" fill="url(#paint0_linear)"/>
        <path d="M1120.5 61.2866H982.667L975.093 96.4144H1112.93L1120.5 61.2866Z" fill="url(#paint1_linear)"/>
        <path d="M987.969 38.8652H1134.13L1141.71 3.7373H995.542L987.969 38.8652Z" fill="url(#paint2_linear)"/>
    </g>
    <defs>
        <linearGradient id="paint0_linear" x1="1033.2" y1="152.07" x2="1002.82" y2="6.33348" gradientUnits="userSpaceOnUse">
            <stop stop-color="#6159F6"/>
            <stop offset="1" stop-color="#E95495"/>
        </linearGradient>
        <linearGradient id="paint1_linear" x1="1033.2" y1="152.069" x2="1001.11" y2="7.10358" gradientUnits="userSpaceOnUse">
            <stop stop-color="#6159F6"/>
            <stop offset="1" stop-color="#E95495"/>
        </linearGradient>
        <linearGradient id="paint2_linear" x1="1038.88" y1="157.702" x2="1007.54" y2="6.49415" gradientUnits="userSpaceOnUse">
            <stop stop-color="#6159F6"/>
            <stop offset="1" stop-color="#E95495"/>
        </linearGradient>
        <clipPath id="clip0">
            <rect width="1294.34" height="157.702" fill="white"/>
        </clipPath>
    </defs>
</svg>
